<svg xmlns="http://www.w3.org/2000/svg" viewBox="0 0 24 24">
  <!-- Background -->
  <rect 
    x="3" 
    y="2" 
    width="18" 
    height="20" 
    rx="3" 
    fill="#F8F9FA" 
    stroke="#212529" 
    stroke-width="1.5"
  />
  
  <!-- Display screen -->
  <rect 
    x="5" 
    y="4" 
    width="14" 
    height="4" 
    rx="1" 
    fill="#E9ECEF" 
    stroke="#495057" 
    stroke-width="1"
  />
  
  <!-- Button grid -->
  <!-- Row 1 -->
  <rect x="5" y="10" width="3" height="2" rx="1" fill="#4B9FFF"/>
  <rect x="9" y="10" width="3" height="2" rx="1" fill="#4B9FFF"/>
  <rect x="13" y="10" width="6" height="2" rx="1" fill="#A463F2"/>
  
  <!-- Row 2 -->
  <rect x="5" y="13" width="3" height="2" rx="1" fill="#ADB5BD"/>
  <rect x="9" y="13" width="3" height="2" rx="1" fill="#ADB5BD"/>
  <rect x="13" y="13" width="3" height="2" rx="1" fill="#ADB5BD"/>
  
  <!-- Row 3 -->
  <rect x="5" y="16" width="3" height="2" rx="1" fill="#ADB5BD"/>
  <rect x="9" y="16" width="3" height="2" rx="1" fill="#ADB5BD"/>
  <rect x="13" y="16" width="3" height="2" rx="1" fill="#ADB5BD"/>
  
  <!-- Row 4 -->
  <rect x="5" y="19" width="7" height="2" rx="1" fill="#2ECC71"/>
  <rect x="13" y="19" width="3" height="2" rx="1" fill="#ADB5BD"/>
</svg>
